# xmcd
#
# Track frame offsets: 
#        150
#        17376
#        39036
#        55895
#        70585
#        84346
#        100075
#        114432
#        129998
#        146674
#        161466
#        179805
#
# Disc length: 2641 seconds
#
# Revision: 2
# Processed by: cddbd v1.5.2PL0 Copyright (c) Steve Scherf et al.
# Submitted via: ExactAudioCopyFreeDBPlugin 1.0
#
DISCID=8e0a4f0c
DTITLE=Lady Antebellum - Golden
DYEAR=2013
DGENRE=Country
TTITLE0=Get To Me
TTITLE1=Goodbye Town
TTITLE2=Nothin' Like The First Time
TTITLE3=Downtown
TTITLE4=Better Off Now (That You're Gone)
TTITLE5=It Ain't Pretty
TTITLE6=Can't Stand The Rain
TTITLE7=Golden
TTITLE8=Long Teenage Goodbye
TTITLE9=All For Love
TTITLE10=Better Man
TTITLE11=Generation Away
EXTD=
EXTT0=
EXTT1=
EXTT2=
EXTT3=
EXTT4=
EXTT5=
EXTT6=
EXTT7=
EXTT8=
EXTT9=
EXTT10=
EXTT11=
PLAYORDER=
